%
M48
M72
T01C0.01181
T02C0.01575
T03C0.03937
T04C0.04000
T05C0.04700
T06C0.11811
T07C0.12598
%
T01
X72457Y151433
X72457Y160183
X72457Y165183
X72457Y170183
X79957Y173933
X79957Y178933
X89957Y173933
X104957Y161433
X109957Y163933
X113707Y166433
X104957Y156433
X138707Y160183
X142457Y157683
X76207Y191433
X55707Y169699
X53457Y165183
X101207Y211433
T02
X97457Y205183
X109957Y205183
X121207Y205183
X124957Y210183
X133707Y205183
X147457Y217683
X166207Y225183
X181207Y203933
X158707Y187683
X158707Y173933
X166207Y173933
X172457Y173933
X158707Y166433
X162457Y161433
X152457Y156433
X153707Y151433
X148707Y141433
X136207Y141433
X121207Y131433
X116207Y136433
X104957Y128933
X110582Y125183
X119957Y126433
X118707Y121433
X122457Y121433
X126207Y121433
X133707Y121433
X133707Y128933
X158707Y132058
X166207Y132058
X173707Y133933
X183707Y133933
X183707Y148933
X177457Y150183
X174957Y163933
X189957Y166433
X213707Y166433
X228707Y177683
X238707Y166433
X253707Y166433
X253707Y143933
X226207Y143933
X246207Y116433
X252457Y115183
X261207Y115183
X271207Y115183
X281207Y115183
X261207Y92683
X251207Y86433
X241207Y86433
X266207Y81433
X298707Y76433
X318707Y86433
X328707Y92683
X333707Y81433
X366207Y76433
X386207Y86433
X396207Y92683
X401207Y81433
X433707Y76433
X453707Y86433
X463707Y92683
X468707Y81433
X473707Y115183
X463707Y115183
X453707Y115183
X471207Y136433
X416207Y115183
X406207Y115183
X396207Y115183
X383707Y115183
X348707Y115183
X338707Y115183
X328707Y115183
X318707Y115183
X227457Y108933
X163707Y112683
X163707Y121433
X133707Y112683
X106207Y107683
X106207Y101433
X93707Y95183
X106207Y83933
X128707Y83933
X106207Y63933
X74957Y76433
X68707Y96433
X68707Y106433
X83082Y111433
X83082Y119558
X98707Y122683
X93707Y138933
X87457Y138933
X81207Y138933
X67457Y136433
X54957Y146433
X28707Y141433
X23707Y136433
X53707Y123933
X101207Y151433
X116207Y152683
X142457Y163933
X149957Y161433
X134957Y171433
X124957Y173933
X114957Y182683
X92457Y181433
X78707Y200183
X54332Y192058
X28707Y206433
X23707Y187683
X23707Y177683
X23707Y167683
X23707Y155183
X61207Y221433
X111207Y220183
X121207Y238933
X118707Y245183
X228707Y212683
X231207Y203933
X251207Y212683
X261207Y212683
X278707Y212683
X308707Y212683
X318707Y212683
X328707Y212683
X343707Y212683
X373707Y212683
X386207Y212683
X396207Y212683
X408707Y212683
X443707Y212683
X453707Y212683
X463707Y212683
X471207Y212683
X463707Y235183
X473707Y241433
X458707Y246433
X426207Y251433
X406207Y241433
X396207Y235183
X391207Y246433
X358707Y251433
X338707Y241433
X328707Y235183
X323707Y246433
X291207Y251433
X271207Y241433
X261207Y235183
X256207Y246433
X236207Y247683
X231207Y258933
X236207Y235183
X151207Y173933
X28707Y86433
X181207Y63933
X471207Y175183
X493707Y251433
T03
X47457Y191433
X37457Y191433
X37457Y181433
X47457Y181433
X47457Y171433
X37457Y171433
X37457Y161433
X47457Y161433
X47457Y151433
X37457Y151433
X37457Y141433
X47457Y141433
X47457Y131433
X37457Y131433
X37457Y121433
X47457Y121433
X47457Y111433
X37457Y111433
X37457Y101433
X47457Y101433
X47457Y91433
X37457Y91433
X37457Y81433
X47457Y81433
X47457Y71433
X37457Y71433
T04
X14957Y91433
X14957Y101433
X14957Y111433
X14957Y131433
X14957Y141433
X14957Y151433
X14957Y171433
X14957Y181433
X14957Y191433
X141207Y81433
X151207Y81433
X161207Y81433
X171207Y81433
X206207Y240183
X206207Y250183
X206207Y260183
X206207Y270183
T05
X241207Y268933
X261207Y268933
X281207Y268933
X308707Y268933
X328707Y268933
X348707Y268933
X376207Y268933
X396207Y268933
X416207Y268933
X443707Y268933
X463707Y268933
X483707Y268933
X171207Y268933
X151207Y268933
X131207Y268933
X106207Y268933
X86207Y268933
X66207Y268933
X46207Y268933
X241207Y58933
X261207Y58933
X281207Y58933
X308707Y58933
X328707Y58933
X348707Y58933
X376207Y58933
X396207Y58933
X416207Y58933
X443707Y58933
X463707Y58933
X483707Y58933
T06
X202043Y48538
X44126Y48538
X44126Y214329
X202043Y214329
T07
X16207Y46433
X16207Y281433
X509957Y282683
X509957Y46433
M30
